<svg xmlns="http://www.w3.org/2000/svg" width="1600" height="1000" viewBox="0 0 1600 1000" fill="none"><rect width="1600" height="1000" fill="#08120f"/><path d="M0 860C154 790 275 770 442 800C634 835 735 941 923 936C1120 931 1279 786 1600 676V1000H0V860Z" fill="#0d211a"/><path d="M1040 87C1290 130 1460 350 1518 628C1348 731 1186 802 1000 800C839 798 733 731 620 635C742 312 877 156 1040 87Z" fill="#112821"/><circle cx="1258" cy="212" r="124" fill="#193127"/><rect x="170" y="322" width="560" height="360" rx="26" fill="#d8c094" fill-opacity="0.08" stroke="#d5af5f" stroke-opacity="0.25"/><rect x="214" y="364" width="472" height="174" rx="18" fill="#f1e7d2" fill-opacity="0.08"/><rect x="240" y="564" width="260" height="48" rx="24" fill="#d5af5f" fill-opacity="0.15" stroke="#d5af5f" stroke-opacity="0.35"/><rect x="760" y="468" width="292" height="176" rx="18" fill="#f1e7d2" fill-opacity="0.07"/><rect x="1079" y="428" width="265" height="216" rx="18" fill="#f1e7d2" fill-opacity="0.05"/></svg>